# AST/ASF file generated using VICON BodyLanguage
# -----------------------------------------------
:version 1.10
:name VICON
:units
  mass 1.0
  length 0.45
  angle deg
:documentation
   .ast/.asf automatically generated from VICON data using
   VICON BodyBuilder and BodyLanguage model FoxedUp or BRILLIANT.MOD
:root
   order TX TY TZ RX RY RZ
   axis XYZ
   position 0 0 0  
   orientation 0 0 0 
:bonedata
  begin
     id 1 
     name lhipjoint
     direction 0.573633 -0.743009 0.344793 
     length 2.46257 
     axis 0 0 0  XYZ
  end
  begin
     id 2 
     name lfemur
     direction 0.34202 -0.939693 0  
     length 7.3842  
     axis 0 0 20  XYZ
    dof rx ry rz
    limits (-160.0 20.0)
           (-70.0 70.0)
           (-60.0 70.0)
  end
  begin
     id 3 
     name ltibia
     direction 0.34202 -0.939693 0   
     length 7.50407   
     axis 0 0 20   XYZ
    dof rx
    limits (-10.0 170.0)
  end
  begin
     id 4 
     name lfoot
     direction 0.110749 -0.304281 0.946123   
     length 1.95925   
     axis -90 7.62852e-016 20   XYZ
    dof rx rz
    limits (-45.0 90.0)
           (-70.0 20.0)
  end
  begin
     id 5 
     name ltoes
     direction 1.53554e-011 -4.21843e-011 1   
     length 0.978318   
     axis -90 7.62852e-016 20   XYZ
    dof rx
    limits (-90.0 20.0)
  end
  begin
     id 6 
     name rhipjoint
     direction -0.488109 -0.791693 0.367385   
     length 2.31113  
     axis 0 0 0  XYZ 
  end
  begin
     id 7 
     name rfemur
     direction -0.34202 -0.939693 0   
     length 7.40965   
     axis 0 0 -20   XYZ
    dof rx ry rz
    limits (-160.0 20.0)
           (-70.0 70.0)
           (-70.0 60.0)
  end
  begin
     id 8 
     name rtibia
     direction -0.34202 -0.939693 0   
     length 7.55548   
     axis 0 0 -20   XYZ
    dof rx
    limits (-10.0 170.0)
 end
 begin
     id 9 
     name rfoot
     direction -0.127594 -0.350561 0.927808   
     length 2.07199  
     axis -90 -7.62852e-016 -20   XYZ
    dof rx rz
    limits (-45.0 90.0)
           (-20.0 70.0)
  end
  begin
     id 10 
     name rtoes
     direction -1.53542e-011 -4.21909e-011 1   
     length 1.02667   
     axis -90 -7.62852e-016 -20   XYZ
    dof rx
    limits (-90.0 20.0)
  end
  begin
     id 11 
     name lowerback
     direction -0.0103342 0.997298 -0.0727278   
     length 2.02836   
     axis 0 0 0   XYZ
    dof rx ry rz
    limits (-20.0 45.0)
           (-30.0 30.0)
           (-30.0 30.0)
  end
  begin
     id 12 
     name upperback
     direction 0.0171146 0.999786 -0.011606   
     length 2.03179   
     axis 0 0 0   XYZ
    dof rx ry rz
    limits (-20.0 45.0)
           (-30.0 30.0)
           (-30.0 30.0)
  end
  begin
     id 13 
     name thorax
     direction 0.0216927 0.999513 0.0224343   
     length 2.03882   
     axis 0 0 0   XYZ
    dof rx ry rz
    limits (-20.0 45.0)
           (-30.0 30.0)
           (-30.0 30.0)
  end
  begin
     id 14 
     name lowerneck
     direction 0.000989287 0.993907 0.110221   
     length 1.75428   
     axis 0 0 0   XYZ
    dof rx ry rz
    limits (-20.0 45.0)
           (-30.0 30.0)
           (-30.0 30.0)
  end
  begin
     id 15 
     name upperneck
     direction -0.0172474 0.994813 -0.100253   
     length 1.77058   
     axis 0 0 0   XYZ
    dof rx ry rz
    limits (-20.0 45.0)
           (-30.0 30.0)
           (-30.0 30.0)
  end
  begin
     id 16
     name head
     direction -0.00486455 0.99894 -0.0457663  
     length 1.77427  
     axis 0 0 0   XYZ
    dof rx ry rz
    limits (-20.0 45.0)
           (-30.0 30.0)
           (-30.0 30.0)
  end
  begin
     id 17 
     name lclavicle
     direction 0.927314 0.333734 -0.169441  
     length 3.97584  
     axis 0 0 0   XYZ
    dof ry rz
    limits (-20.0 10.0)
           (0.0 20.0)
  end
  begin
     id 18 
     name lhumerus
     direction 1 -4.48965e-011 -3.25313e-028   
     length 4.76468   
     axis 180 -30 -90   XYZ
    dof rx ry rz
    limits (-60.0 90.0)
           (-90.0 90.0)
           (-90.0 90.0)
  end
  begin
     id 19
     name lradius
     direction 1 -4.48969e-011 -2.8465e-028   
     length 3.52712   
     axis -180 -30 -90   XYZ
    dof rx
    limits (-10.0 170.0)
  end
  begin
     id 20
     name lwrist
     direction 1 -4.4896e-011 -7.78665e-028   
     length 1.76356   
     axis 1.91374e-015 90 90   XYZ
    dof ry
    limits (-180.0 0.0)
 end
  begin
     id 21 
     name lhand
     direction 1 -4.48959e-011 -1.55733e-027   
     length 0.859564   
     axis 9.9371e-016 90 90   XYZ
    dof rx rz
    limits (-90.0 90.0)
           (-45.0 45.0)
  end
  begin
     id 22 
     name lfingers
     direction 1 -4.48965e-011 -3.11466e-027   
     length 0.693002   
     axis 1.98742e-015 90 90   XYZ
    dof rx
    limits (0.0 90.0)
  end
  begin
     id 23
     name lthumb
     direction 0.707107 -6.34948e-011 0.707107   
     length 0.995017   
     axis -90 45 2.85299e-015   XYZ
    dof rx rz
    limits (-45.0 45.0)
           (-45.0 45.0)
  end
  begin
     id 24 
     name rclavicle
     direction -0.899388 0.348209 -0.264294   
     length 3.68366  
     axis 0 0 0   XYZ 
    dof ry rz
    limits (-10.0 20.0)
           (-20.0 0.0)
  end
  begin
     id 25 
     name rhumerus
     direction -1 -4.48965e-011 -3.01536e-027  
     length 4.90577   
     axis 180 30 90   XYZ
    dof rx ry rz
    limits (-90.0 60.0)
           (-90.0 90.0)
           (-90.0 90.0)
  end
  begin
     id 26 
     name rradius
     direction -1 -4.48966e-011 3.93291e-027   
     length 3.42692   
     axis -180 30 90   XYZ
    dof rx
    limits (-10.0 170.0)
  end
  begin
     id 27 
     name rwrist
     direction -1 -4.48969e-011 -7.78665e-028   
     length 1.71346   
     axis 1.91374e-015 -90 -90   XYZ
    dof ry
    limits (-180.0 0.0)
  end
  begin
     id 28
     name rhand
     direction -1 -4.48967e-011 -1.55733e-027   
     length 0.740957   
     axis 9.9371e-016 -90 -90   XYZ
    dof rx rz
    limits (-90.0 90.0)
           (-45.0 45.0)
  end
  begin
     id 29
     name rfingers
     direction -1 -4.48949e-011 -3.11466e-027   
     length 0.597378   
     axis 1.98742e-015 -90 -90   XYZ
    dof rx
    limits (0.0 90.0)
  end
  begin
     id 30
     name rthumb
     direction -0.707107 -6.34931e-011 0.707107   
     length 0.857719   
     axis -90 -45 -2.85299e-015   XYZ
    dof rx rz
    limits (-45.0 45.0)
           (-45.0 45.0)
  end
:hierarchy
  begin
    root lhipjoint rhipjoint lowerback
    lhipjoint lfemur
    lfemur ltibia
    ltibia lfoot
    lfoot ltoes
    rhipjoint rfemur
    rfemur rtibia
    rtibia rfoot
    rfoot rtoes
    lowerback upperback
    upperback thorax
    thorax lowerneck lclavicle rclavicle
    lowerneck upperneck
    upperneck head
    lclavicle lhumerus
    lhumerus lradius
    lradius lwrist
    lwrist lhand lthumb
    lhand lfingers
    rclavicle rhumerus
    rhumerus rradius
    rradius rwrist
    rwrist rhand rthumb
    rhand rfingers
  end

#!OML:ASF I:\AllaLogoMonkeySwing\Project 1\Capture day 1\Session 1\Subject1.ASF
:FULLY-SPECIFIED
:DEGREES
47
root -0.847596 19.5964 -14.6021 5.67879 2.02812 4.59561
lowerback 12.6554 0.413035 -1.56044
upperback 0.598785 0.356219 0.464543
thorax -6.48698 0.228005 1.30745
lowerneck -15.8654 0.329898 -2.09967
upperneck 16.8953 0.867078 0.504866
head 7.82304 0.32708 0.610277
rclavicle 5.96354e-015 -1.27222e-014
rhumerus -40.683 10.8516 -85.5186
rradius 53.7413
rwrist -6.67771
rhand -12.4434 -34.7435
rfingers 7.12502
rthumb 13.6296 -64.2773
lclavicle 5.96354e-015 -1.27222e-014
lhumerus -45.8543 6.17369 84.0551
lradius 63.8427
lwrist 13.2391
lhand -16.2539 -16.3419
lfingers 7.12502
lthumb 9.95523 13.4026
rfemur -5.86447 -0.965097 19.9002
rtibia 35.2816
rfoot 18.8987 1.71551
rtoes 6.71148
lfemur -23.3043 13.0003 -4.50019
ltibia 103.625
lfoot -7.42624 -18.5494
ltoes -36.7106
48
root -0.84046 19.8364 -14.3258 5.63615 0.857351 5.90763
lowerback 12.3514 0.651047 -2.9068
upperback 0.686429 0.469015 0.161051
thorax -6.23697 0.314049 1.72928
lowerneck -15.8443 0.517405 -2.19336
upperneck 16.9496 1.19792 0.245949
head 7.83442 0.451852 0.577268
rclavicle 2.04748e-014 1.59028e-015
rhumerus -40.6274 9.7853 -84.5869
rradius 53.0481
rwrist -7.384
rhand -12.6575 -35.2529
rfingers 7.12502
rthumb 13.4233 -64.8004
lclavicle 2.04748e-014 1.59028e-015
lhumerus -46.3808 7.42085 83.3544
lradius 62.9974
lwrist 13.7104
lhand -16.7438 -15.3497
lfingers 7.12502
lthumb 9.48253 14.4169
rfemur -8.22698 -1.41256 18.2748
rtibia 38.422
rfoot 17.2912 -1.84023
rtoes 12.0256
lfemur -21.4705 12.5168 -6.15883
ltibia 102.985
lfoot -2.02318 -18.6319
ltoes -20.0756
49
root -0.849143 20.021 -14.0569 5.22525 0.069341 6.0728
lowerback 12.5959 0.728279 -3.09869
upperback 0.848918 0.537228 0.146314
thorax -6.20669 0.350078 1.80951
lowerneck -15.9752 0.725348 -1.89164
upperneck 17.1969 1.54407 -0.398279
head 7.9441 0.568457 0.35522
rclavicle 2.48481e-014 -2.38542e-015
rhumerus -40.7415 8.16985 -83.6516
rradius 52.531
rwrist -7.84337
rhand -12.7851 -35.498
rfingers 7.12502
rthumb 13.3004 -65.0536
lclavicle 2.48481e-014 -2.38542e-015
lhumerus -46.9147 8.32639 82.6853
lradius 62.3354
lwrist 14.0663
lhand -16.8054 -15.169
lfingers 7.12502
lthumb 9.42311 14.6004
rfemur -10.2398 -1.99175 18.1994
rtibia 41.2328
rfoot 15.2006 -5.30663
rtoes 14.4358
lfemur -19.3519 12.0883 -6.06353
ltibia 102.45
lfoot -0.783234 -18.2864
ltoes -18.1469
50
root -0.860638 20.1582 -13.799 4.93047 -0.421181 6.55219
lowerback 13.0295 0.663968 -3.55873
upperback 0.89544 0.363299 0.049668
thorax -6.39269 0.27872 1.99746
lowerneck -15.996 0.975184 -1.8931
upperneck 17.2155 1.94141 -0.665651
head 7.95431 0.729415 0.312135
rclavicle 6.95746e-015 -1.11319e-014
rhumerus -41.1412 6.23492 -82.7113
rradius 52.2431
rwrist -7.7361
rhand -13.0451 -35.5539
rfingers 7.12502
rthumb 13.0497 -65.1257
lclavicle 6.95746e-015 -1.11319e-014
lhumerus -47.5266 9.1588 82.0348
lradius 61.8273
lwrist 14.2348
lhand -16.4595 -15.1549
lfingers 7.12502
lthumb 9.75684 14.5991
rfemur -12.3279 -2.58011 17.8383
rtibia 42.9537
rfoot 12.9249 -7.1846
rtoes 15.8268
lfemur -17.5059 11.3384 -6.5067
ltibia 101.961
lfoot -0.790389 -17.2682
ltoes -20.8175
51
root -0.870218 20.2528 -13.5386 4.60678 -0.74035 6.65733
lowerback 13.5776 0.499515 -3.55862
upperback 0.916343 0.123686 0.0597362
thorax -6.66181 0.166234 2.05261
lowerneck -15.8492 1.2792 -2.08266
upperneck 17.1557 2.39357 -0.638025
head 7.90301 0.93555 0.402087
rclavicle 8.15017e-015 -1.03368e-014
rhumerus -41.6681 4.47018 -81.774
rradius 51.9483
rwrist -7.47862
rhand -13.2405 -35.5555
rfingers 7.12502
rthumb 12.8613 -65.1392
lclavicle 8.15017e-015 -1.03368e-014
lhumerus -48.2265 9.80288 81.4806
lradius 61.4156
lwrist 14.1119
lhand -16.0827 -15.3195
lfingers 7.12502
lthumb 10.1204 14.4171
rfemur -14.0414 -3.08835 17.9174
rtibia 43.3678
rfoot 11.192 -8.37809
rtoes 16.9236
lfemur -15.5107 10.43 -6.6903
ltibia 101.169
lfoot -0.608329 -16.1284
ltoes -23.2458
52
root -0.868139 20.3017 -13.2745 4.4781 -1.15558 7.09614
lowerback 13.7891 0.365646 -3.74595
upperback 0.94034 -0.097725 -0.0342997
thorax -6.74056 0.0635157 2.1019
lowerneck -15.8456 1.69373 -1.2866
upperneck 17.5718 2.96681 -1.57584
head 8.06532 1.15925 0.0282315
rclavicle -3.18055e-015 -3.97569e-015
rhumerus -42.2288 2.74552 -80.798
rradius 51.7875
rwrist -7.46785
rhand -13.1805 -36.0062
rfingers 7.12502
rthumb 12.9192 -65.5863
lclavicle -3.18055e-015 -3.97569e-015
lhumerus -48.9106 10.11 81.1119
lradius 61.0716
lwrist 13.9377
lhand -15.8491 -15.6466
lfingers 7.12502
lthumb 10.3458 14.0789
rfemur -15.6284 -3.28067 17.4883
rtibia 42.3085
rfoot 9.3749 -8.76619
rtoes 17.2186
lfemur -13.7077 9.57311 -7.56709
ltibia 100.368
lfoot 0.266512 -14.7216
ltoes -24.322
53
root -0.86133 20.3142 -12.9998 4.5412 -1.67224 7.63517
lowerback 13.6477 0.264007 -4.00375
upperback 0.963743 -0.272186 -0.133203
thorax -6.62493 -0.0181049 2.17551
lowerneck -15.7857 2.02959 -0.774564
upperneck 17.8698 3.44419 -2.22754
head 8.17753 1.34897 -0.216507
rclavicle 1.51076e-014 1.98785e-014
rhumerus -42.818 0.998815 -79.6637
rradius 51.4158
rwrist -7.43501
rhand -13.6604 -35.587
rfingers 7.12502
rthumb 12.4566 -65.1958
lclavicle 1.51076e-014 1.98785e-014
lhumerus -49.2653 10.1748 80.9185
lradius 60.588
lwrist 13.8088
lhand -15.627 -15.8315
lfingers 7.12502
lthumb 10.56 13.8833
rfemur -17.0497 -3.49813 16.911
rtibia 40.1687
rfoot 7.68251 -8.26411
rtoes 17.9769
lfemur -12.0355 8.92703 -8.71707
ltibia 99.3948
lfoot 1.58824 -13.0407
ltoes -26.6935
54
root -0.863436 20.2775 -12.7173 4.55467 -2.22265 7.54915
lowerback 13.4563 0.18953 -3.76571
upperback 1.03382 -0.316047 -0.00926542
thorax -6.4407 -0.0493589 2.17904
lowerneck -15.6906 2.34367 -0.92987
upperneck 17.9271 3.95482 -2.42259
head 8.18599 1.55966 -0.197476
rclavicle -1.15295e-014 -2.06736e-014
rhumerus -43.3386 -0.576062 -78.3979
rradius 51.256
rwrist -8.40641
rhand -14.2532 -35.5827
rfingers 7.12502
rthumb 11.885 -65.2254
lclavicle -1.15295e-014 -2.06736e-014
lhumerus -49.3561 10.0842 80.8261
lradius 59.9373
lwrist 13.3913
lhand -15.0542 -15.7183
lfingers 7.12502
lthumb 11.1124 13.9675
rfemur -18.0517 -3.39848 17.0836
rtibia 37.1114
rfoot 6.08485 -7.47402
rtoes 17.7481
lfemur -10.1783 8.57994 -8.85463
ltibia 98.3785
lfoot 2.45577 -11.8083
ltoes -24.5113
55
root -0.864883 20.1901 -12.4353 4.59107 -2.80497 8.47206
lowerback 13.1427 0.193787 -4.52461
upperback 1.08102 -0.417343 -0.165862
thorax -6.20539 -0.0861697 2.45836
lowerneck -15.5063 2.57428 -0.434419
upperneck 18.0714 4.34972 -3.36037
head 8.24049 1.68348 -0.546299
rclavicle -2.44505e-014 -1.82882e-014
rhumerus -43.9813 -1.88796 -77.2418
rradius 50.8267
rwrist -9.36018
rhand -15.5025 -35.0846
rfingers 7.12502
rthumb 10.6801 -64.7932
lclavicle -2.44505e-014 -1.82882e-014
lhumerus -49.5346 9.67167 80.8452
lradius 59.3786
lwrist 13.2573
lhand -14.4965 -15.7612
lfingers 7.12502
lthumb 11.6504 13.8949
rfemur -19.0432 -3.49073 16.0824
rtibia 33.7383
rfoot 4.54432 -5.98802
rtoes 17.6583
lfemur -8.42756 8.18928 -10.4153
ltibia 97.2373
lfoot 2.66624 -10.6509
ltoes -29.0959
56
root -0.869486 20.0541 -12.1391 4.90106 -3.17575 9.11178
lowerback 12.3162 0.0833172 -4.92595
upperback 1.05566 -0.583954 -0.307344
thorax -5.75653 -0.169871 2.55703
lowerneck -14.9885 2.80758 -0.317067
upperneck 17.9826 4.675 -3.57974
head 8.13226 1.83171 -0.60783
rclavicle -1.98785e-016 -2.3059e-014
rhumerus -44.8964 -3.05956 -76.2219
rradius 50.59
rwrist -10.7792
rhand -15.5816 -34.9255
rfingers 7.12502
rthumb 10.6038 -64.638
lclavicle -1.98785e-016 -2.3059e-014
lhumerus -49.3345 9.70791 80.4851
lradius 58.4684
lwrist 12.3905
lhand -13.0962 -15.5671
lfingers 7.12502
lthumb 13.0005 14.0078
rfemur -20.1021 -3.80384 15.4458
rtibia 30.1184
rfoot 3.54713 -3.76256
rtoes 16.0634
lfemur -7.01489 7.94095 -11.4898
ltibia 96.0989
lfoot 3.31034 -9.34219
ltoes -28.408
